<?xml version="1.0" encoding="utf-8"?>
<!-- Generator: Adobe Illustrator 16.0.0, SVG Export Plug-In . SVG Version: 6.00 Build 0)  -->
<!DOCTYPE svg PUBLIC "-//W3C//DTD SVG 1.0//EN" "http://www.w3.org/TR/2001/REC-SVG-20010904/DTD/svg10.dtd">
<svg version="1.0" id="Calque_1" xmlns="http://www.w3.org/2000/svg" xmlns:xlink="http://www.w3.org/1999/xlink" x="0px" y="0px"
	 width="18.313px" height="19.917px" viewBox="0 0 18.313 19.917" enable-background="new 0 0 18.313 19.917" xml:space="preserve">
<rect x="2.234" y="6.804" fill="#FCFCFC" stroke="#E53C3C" stroke-miterlimit="10" width="13.826" height="13.062"/>
<path fill="none" stroke="#E53C3C" stroke-miterlimit="10" d="M12.024,5.704c0,0.225-0.548,0.407-1.222,0.407H7.136
	c-0.675,0-1.222-0.182-1.222-0.407V0.407C5.914,0.182,6.46,0,7.136,0h3.667c0.674,0,1.222,0.182,1.222,0.407V5.704z"/>
<path fill="#FCFCFC" stroke="#E53C3C" stroke-miterlimit="10" d="M18.313,5.851c0,0.523-0.547,0.947-1.222,0.947H1.203
	c-0.675,0-1.222-0.424-1.222-0.947V3.009c0-0.523,0.547-0.947,1.222-0.947h15.889c0.675,0,1.222,0.424,1.222,0.947V5.851z"/>
<line fill="#FCFCFC" stroke="#E53C3C" stroke-miterlimit="10" x1="12.016" y1="19.87" x2="12.016" y2="6.809"/>
<line fill="#FCFCFC" stroke="#E53C3C" stroke-miterlimit="10" x1="9.572" y1="19.87" x2="9.572" y2="6.809"/>
<line fill="#FCFCFC" stroke="#E53C3C" stroke-miterlimit="10" x1="7.127" y1="19.87" x2="7.127" y2="6.809"/>
<line fill="#FCFCFC" stroke="#E53C3C" stroke-miterlimit="10" x1="4.683" y1="19.87" x2="4.683" y2="6.809"/>
<line fill="#FCFCFC" stroke="#E53C3C" stroke-miterlimit="10" x1="13.85" y1="19.87" x2="13.85" y2="6.809"/>
<line fill="#FCFCFC" stroke="#E53C3C" stroke-miterlimit="10" x1="2.239" y1="19.87" x2="2.239" y2="6.809"/>
</svg>
